<svg width="15" height="15" viewBox="0 0 15 15" fill="none" xmlns="http://www.w3.org/2000/svg">
<path d="M7.55176 3.66504C9.64355 3.66504 11.3701 5.3916 11.3701 7.4834C11.3701 9.6084 9.64355 11.3018 7.55176 11.3018C5.42676 11.3018 3.7334 9.6084 3.7334 7.4834C3.7334 5.3916 5.42676 3.66504 7.55176 3.66504ZM7.55176 9.97363C8.91309 9.97363 10.0088 8.87793 10.0088 7.4834C10.0088 6.12207 8.91309 5.02637 7.55176 5.02637C6.15723 5.02637 5.06152 6.12207 5.06152 7.4834C5.06152 8.87793 6.19043 9.97363 7.55176 9.97363ZM12.3994 3.53223C12.3994 4.03027 12.001 4.42871 11.5029 4.42871C11.0049 4.42871 10.6064 4.03027 10.6064 3.53223C10.6064 3.03418 11.0049 2.63574 11.5029 2.63574C12.001 2.63574 12.3994 3.03418 12.3994 3.53223ZM14.9229 4.42871C14.9893 5.65723 14.9893 9.34277 14.9229 10.5713C14.8564 11.7666 14.5908 12.7959 13.7275 13.6924C12.8643 14.5557 11.8018 14.8213 10.6064 14.8877C9.37793 14.9541 5.69238 14.9541 4.46387 14.8877C3.26855 14.8213 2.23926 14.5557 1.34277 13.6924C0.479492 12.7959 0.213867 11.7666 0.147461 10.5713C0.0810547 9.34277 0.0810547 5.65723 0.147461 4.42871C0.213867 3.2334 0.479492 2.1709 1.34277 1.30762C2.23926 0.444336 3.26855 0.178711 4.46387 0.112305C5.69238 0.0458984 9.37793 0.0458984 10.6064 0.112305C11.8018 0.178711 12.8643 0.444336 13.7275 1.30762C14.5908 2.1709 14.8564 3.2334 14.9229 4.42871ZM13.3291 11.8662C13.7275 10.9033 13.6279 8.5791 13.6279 7.4834C13.6279 6.4209 13.7275 4.09668 13.3291 3.10059C13.0635 2.46973 12.5654 1.93848 11.9346 1.70605C10.9385 1.30762 8.61426 1.40723 7.55176 1.40723C6.45605 1.40723 4.13184 1.30762 3.16895 1.70605C2.50488 1.97168 2.00684 2.46973 1.74121 3.10059C1.34277 4.09668 1.44238 6.4209 1.44238 7.4834C1.44238 8.5791 1.34277 10.9033 1.74121 11.8662C2.00684 12.5303 2.50488 13.0283 3.16895 13.2939C4.13184 13.6924 6.45605 13.5928 7.55176 13.5928C8.61426 13.5928 10.9385 13.6924 11.9346 13.2939C12.5654 13.0283 13.0967 12.5303 13.3291 11.8662Z" fill="#11467A"/>
</svg>
