<svg width="63" height="47" viewBox="0 0 63 47" fill="none" xmlns="http://www.w3.org/2000/svg">
<path d="M28.2629 39.1229H1V1H51.9345V11.9635M16.2247 14.6545H29.4768M16.2247 29.5548H27.403M7.32255 10.1694L10.8126 14.804L15.5166 7.87708M7.32255 25.1196L10.8126 29.7542L15.5166 22.8272M34.0964 40.3185C36.9812 43.7868 41.363 46 46.2695 46C54.9572 46 62 39.0612 62 30.5017C62 21.9574 54.9823 15.0281 46.3159 15.0034M34.0964 40.3185C31.8731 37.6455 30.539 34.2271 30.539 30.5017C30.539 28.8702 30.7948 27.2977 31.2691 25.8209M34.0964 40.3185L34.029 40.3688M34.0964 40.3185L46.573 31M46.2695 15.0033C46.285 15.0033 46.3005 15.0033 46.3159 15.0034M46.3159 15.0034L46.2695 12.1129C35.0406 11.6644 29.7465 20.402 28.3134 24.8206L31.2691 25.8209M46.3159 15.0034L46.573 31M46.573 31L57.296 41.4651M46.573 31L31.2691 25.8209M31.2691 25.8209C31.2802 25.7864 31.2914 25.752 31.3027 25.7176" stroke="#11467A" stroke-linecap="round" stroke-linejoin="round"/>
</svg>
