<svg width="18" height="15" viewBox="0 0 18 15" fill="none" xmlns="http://www.w3.org/2000/svg">
<path d="M15.3711 4.03027C15.3711 4.19629 15.3711 4.3291 15.3711 4.49512C15.3711 9.11035 11.8848 14.3896 5.47656 14.3896C3.48438 14.3896 1.6582 13.8252 0.130859 12.8291C0.396484 12.8623 0.662109 12.8955 0.960938 12.8955C2.58789 12.8955 4.08203 12.3311 5.27734 11.4014C3.75 11.3682 2.45508 10.3721 2.02344 8.97754C2.25586 9.01074 2.45508 9.04395 2.6875 9.04395C2.98633 9.04395 3.31836 8.97754 3.58398 8.91113C1.99023 8.5791 0.794922 7.18457 0.794922 5.49121V5.45801C1.25977 5.72363 1.82422 5.85645 2.38867 5.88965C1.42578 5.25879 0.828125 4.19629 0.828125 3.00098C0.828125 2.33691 0.994141 1.73926 1.29297 1.24121C3.01953 3.33301 5.60938 4.72754 8.49805 4.89355C8.43164 4.62793 8.39844 4.3623 8.39844 4.09668C8.39844 2.1709 9.95898 0.610352 11.8848 0.610352C12.8809 0.610352 13.7773 1.00879 14.4414 1.70605C15.2051 1.54004 15.9688 1.24121 16.6328 0.842773C16.3672 1.67285 15.8359 2.33691 15.1055 2.76855C15.8027 2.70215 16.5 2.50293 17.0977 2.2373C16.6328 2.93457 16.0352 3.53223 15.3711 4.03027Z" fill="#11467A"/>
</svg>
